<svg xmlns="http://www.w3.org/2000/svg" xmlns:xlink="http://www.w3.org/1999/xlink" version="1.1" width="649px" height="273px" viewBox="-0.5 -0.5 649 273"><defs/><g><path d="M 143.83 13.77 Q 329 -14 514.17 13.77" fill="none" stroke="rgb(0, 0, 0)" stroke-opacity="0.1" stroke-miterlimit="10" pointer-events="stroke"/><path d="M 27.91 91.36 Q 189 -4 410.79 71.18" fill="none" stroke="rgb(0, 0, 0)" stroke-opacity="0.1" stroke-miterlimit="10" pointer-events="stroke"/><path d="M 72.25 237.7 Q 249 296 411.96 203.41" fill="none" stroke="rgb(0, 0, 0)" stroke-opacity="0.1" stroke-miterlimit="10" pointer-events="stroke"/><path d="M 214.41 237.16 Q 349 276 514.09 257.66" fill="none" stroke="rgb(0, 0, 0)" stroke-opacity="0.1" stroke-miterlimit="10" pointer-events="stroke"/><path d="M 257.97 98.01 Q 439 86 584.68 131.53" fill="none" stroke="rgb(0, 0, 0)" stroke-opacity="0.1" stroke-miterlimit="10" pointer-events="stroke"/><path d="M 143.48 72.1 Q 389 6 618.58 71.86" fill="none" stroke="rgb(0, 0, 0)" stroke-opacity="0.1" stroke-miterlimit="10" pointer-events="stroke"/><path d="M 86.88 118.9 Q 299 146 479.49 193.2" fill="none" stroke="rgb(0, 0, 0)" stroke-opacity="0.1" stroke-miterlimit="10" pointer-events="stroke"/><path d="M 108.46 181.02 Q 108.46 181.02 479.54 78.98" fill="none" stroke="rgb(0, 0, 0)" stroke-opacity="0.1" stroke-miterlimit="10" pointer-events="stroke"/><path d="M 178.34 189.38 Q 429 266 618.81 200.87" fill="none" stroke="rgb(0, 0, 0)" stroke-opacity="0.1" stroke-miterlimit="10" pointer-events="stroke"/><path d="M 200.98 117.82 Q 200.98 117.82 514.02 135.17" fill="none" stroke="rgb(0, 0, 0)" stroke-opacity="0.1" stroke-miterlimit="10" pointer-events="stroke"/><rect x="309" y="116" width="40" height="40" fill="none" stroke="none" pointer-events="all"/><g fill="rgb(0, 0, 0)" font-family="inherit" text-anchor="middle" font-size="32px"><text x="328.5" y="150.5">≅</text></g><ellipse cx="129" cy="16" rx="15" ry="15" fill="rgb(255, 255, 255)" stroke="rgb(0, 0, 0)" pointer-events="all"/><g fill="rgb(0, 0, 0)" font-family="inherit" text-anchor="middle" font-size="14px"><text x="128.5" y="21.5">0</text></g><ellipse cx="15" cy="99" rx="15" ry="15" fill="rgb(255, 255, 255)" stroke="rgb(0, 0, 0)" pointer-events="all"/><g fill="rgb(0, 0, 0)" font-family="inherit" text-anchor="middle" font-size="14px"><text x="14.5" y="104.5">1</text></g><ellipse cx="58" cy="233" rx="15" ry="15" fill="rgb(255, 255, 255)" stroke="rgb(0, 0, 0)" pointer-events="all"/><g fill="rgb(0, 0, 0)" font-family="inherit" text-anchor="middle" font-size="14px"><text x="57.5" y="238.5">2</text></g><ellipse cx="200" cy="233" rx="15" ry="15" fill="rgb(255, 255, 255)" stroke="rgb(0, 0, 0)" pointer-events="all"/><g fill="rgb(0, 0, 0)" font-family="inherit" text-anchor="middle" font-size="14px"><text x="199.5" y="238.5">3</text></g><ellipse cx="243" cy="99" rx="15" ry="15" fill="rgb(255, 255, 255)" stroke="rgb(0, 0, 0)" pointer-events="all"/><g fill="rgb(0, 0, 0)" font-family="inherit" text-anchor="middle" font-size="14px"><text x="242.5" y="104.5">4</text></g><ellipse cx="129" cy="76" rx="15" ry="15" fill="rgb(255, 255, 255)" stroke="rgb(0, 0, 0)" pointer-events="all"/><g fill="rgb(0, 0, 0)" font-family="inherit" text-anchor="middle" font-size="14px"><text x="128.5" y="81.5">5</text></g><ellipse cx="72" cy="117" rx="15" ry="15" fill="rgb(255, 255, 255)" stroke="rgb(0, 0, 0)" pointer-events="all"/><g fill="rgb(0, 0, 0)" font-family="inherit" text-anchor="middle" font-size="14px"><text x="71.5" y="122.5">6</text></g><ellipse cx="94" cy="185" rx="15" ry="15" fill="rgb(255, 255, 255)" stroke="rgb(0, 0, 0)" pointer-events="all"/><g fill="rgb(0, 0, 0)" font-family="inherit" text-anchor="middle" font-size="14px"><text x="93.5" y="190.5">7</text></g><ellipse cx="164" cy="185" rx="15" ry="15" fill="rgb(255, 255, 255)" stroke="rgb(0, 0, 0)" pointer-events="all"/><g fill="rgb(0, 0, 0)" font-family="inherit" text-anchor="middle" font-size="14px"><text x="163.5" y="190.5">8</text></g><ellipse cx="186" cy="117" rx="15" ry="15" fill="rgb(255, 255, 255)" stroke="rgb(0, 0, 0)" pointer-events="all"/><g fill="rgb(0, 0, 0)" font-family="inherit" text-anchor="middle" font-size="14px"><text x="185.5" y="122.5">9</text></g><path d="M 116.9 24.87 L 27.13 90.17" fill="none" stroke="rgb(0, 0, 0)" stroke-miterlimit="10" pointer-events="stroke"/><path d="M 19.56 113.29 L 53.42 218.72" fill="none" stroke="rgb(0, 0, 0)" stroke-miterlimit="10" pointer-events="stroke"/><path d="M 73 233 L 185 233" fill="none" stroke="rgb(0, 0, 0)" stroke-miterlimit="10" pointer-events="stroke"/><path d="M 204.56 218.71 L 238.42 113.28" fill="none" stroke="rgb(0, 0, 0)" stroke-miterlimit="10" pointer-events="stroke"/><path d="M 230.9 90.13 L 141.13 24.83" fill="none" stroke="rgb(0, 0, 0)" stroke-miterlimit="10" pointer-events="stroke"/><path d="M 129 31 L 129 61" fill="none" stroke="rgb(0, 0, 0)" stroke-miterlimit="10" pointer-events="stroke"/><path d="M 29.33 103.44 L 57.7 112.48" fill="none" stroke="rgb(0, 0, 0)" stroke-miterlimit="10" pointer-events="stroke"/><path d="M 67 221 L 85 197" fill="none" stroke="rgb(0, 0, 0)" stroke-miterlimit="10" pointer-events="stroke"/><path d="M 191 221 L 173 197" fill="none" stroke="rgb(0, 0, 0)" stroke-miterlimit="10" pointer-events="stroke"/><path d="M 228.67 103.44 L 200.3 112.48" fill="none" stroke="rgb(0, 0, 0)" stroke-miterlimit="10" pointer-events="stroke"/><path d="M 124.44 90.29 L 98.59 170.72" fill="none" stroke="rgb(0, 0, 0)" stroke-miterlimit="10" pointer-events="stroke"/><path d="M 84.02 125.98 L 151.94 176.08" fill="none" stroke="rgb(0, 0, 0)" stroke-miterlimit="10" pointer-events="stroke"/><path d="M 106.02 176.02 L 173.94 125.92" fill="none" stroke="rgb(0, 0, 0)" stroke-miterlimit="10" pointer-events="stroke"/><path d="M 159.44 170.71 L 133.59 90.28" fill="none" stroke="rgb(0, 0, 0)" stroke-miterlimit="10" pointer-events="stroke"/><path d="M 171 117 L 87 117" fill="none" stroke="rgb(0, 0, 0)" stroke-miterlimit="10" pointer-events="stroke"/><ellipse cx="529" cy="16" rx="15" ry="15" fill="rgb(255, 255, 255)" stroke="rgb(0, 0, 0)" pointer-events="all"/><g fill="rgb(0, 0, 0)" font-family="inherit" text-anchor="middle" font-size="14px"><text x="528.5" y="21.5">A</text></g><ellipse cx="425" cy="76" rx="15" ry="15" fill="rgb(255, 255, 255)" stroke="rgb(0, 0, 0)" pointer-events="all"/><g fill="rgb(0, 0, 0)" font-family="inherit" text-anchor="middle" font-size="14px"><text x="424.5" y="81.5">B</text></g><ellipse cx="425" cy="196" rx="15" ry="15" fill="rgb(255, 255, 255)" stroke="rgb(0, 0, 0)" pointer-events="all"/><g fill="rgb(0, 0, 0)" font-family="inherit" text-anchor="middle" font-size="14px"><text x="424.5" y="201.5">C</text></g><ellipse cx="529" cy="256" rx="15" ry="15" fill="rgb(255, 255, 255)" stroke="rgb(0, 0, 0)" pointer-events="all"/><g fill="rgb(0, 0, 0)" font-family="inherit" text-anchor="middle" font-size="14px"><text x="528.5" y="261.5">D</text></g><ellipse cx="599" cy="136" rx="15" ry="15" fill="rgb(255, 255, 255)" stroke="rgb(0, 0, 0)" pointer-events="all"/><g fill="rgb(0, 0, 0)" font-family="inherit" text-anchor="middle" font-size="14px"><text x="598.5" y="141.5">E</text></g><ellipse cx="633" cy="76" rx="15" ry="15" fill="rgb(255, 255, 255)" stroke="rgb(0, 0, 0)" pointer-events="all"/><g fill="rgb(0, 0, 0)" font-family="inherit" text-anchor="middle" font-size="14px"><text x="632.5" y="81.5">F</text></g><ellipse cx="494" cy="197" rx="15" ry="15" fill="rgb(255, 255, 255)" stroke="rgb(0, 0, 0)" pointer-events="all"/><g fill="rgb(0, 0, 0)" font-family="inherit" text-anchor="middle" font-size="14px"><text x="493.5" y="202.5">G</text></g><ellipse cx="494" cy="75" rx="15" ry="15" fill="rgb(255, 255, 255)" stroke="rgb(0, 0, 0)" pointer-events="all"/><g fill="rgb(0, 0, 0)" font-family="inherit" text-anchor="middle" font-size="14px"><text x="493.5" y="80.5">H</text></g><ellipse cx="633" cy="196" rx="15" ry="15" fill="rgb(255, 255, 255)" stroke="rgb(0, 0, 0)" pointer-events="all"/><g fill="rgb(0, 0, 0)" font-family="inherit" text-anchor="middle" font-size="14px"><text x="632.5" y="201.5">I</text></g><ellipse cx="529" cy="136" rx="15" ry="15" fill="rgb(255, 255, 255)" stroke="rgb(0, 0, 0)" pointer-events="all"/><g fill="rgb(0, 0, 0)" font-family="inherit" text-anchor="middle" font-size="14px"><text x="528.5" y="141.5">J</text></g><path d="M 515.98 23.44 L 437.99 68.5" fill="none" stroke="rgb(0, 0, 0)" stroke-miterlimit="10" pointer-events="stroke"/><path d="M 425 91 L 425 181" fill="none" stroke="rgb(0, 0, 0)" stroke-miterlimit="10" pointer-events="stroke"/><path d="M 438.02 203.44 L 516.01 248.5" fill="none" stroke="rgb(0, 0, 0)" stroke-miterlimit="10" pointer-events="stroke"/><path d="M 536.52 243.02 L 591.44 148.96" fill="none" stroke="rgb(0, 0, 0)" stroke-miterlimit="10" pointer-events="stroke"/><path d="M 591.48 123.02 L 536.56 28.96" fill="none" stroke="rgb(0, 0, 0)" stroke-miterlimit="10" pointer-events="stroke"/><path d="M 542.02 23.44 L 620.01 68.5" fill="none" stroke="rgb(0, 0, 0)" stroke-miterlimit="10" pointer-events="stroke"/><path d="M 432.43 89.03 L 486.57 183.97" fill="none" stroke="rgb(0, 0, 0)" stroke-miterlimit="10" pointer-events="stroke"/><path d="M 432.43 182.97 L 486.57 88.03" fill="none" stroke="rgb(0, 0, 0)" stroke-miterlimit="10" pointer-events="stroke"/><path d="M 542.02 248.56 L 620.01 203.5" fill="none" stroke="rgb(0, 0, 0)" stroke-miterlimit="10" pointer-events="stroke"/><path d="M 584 136 L 544 136" fill="none" stroke="rgb(0, 0, 0)" stroke-miterlimit="10" pointer-events="stroke"/><path d="M 618 76 L 509 75.11" fill="none" stroke="rgb(0, 0, 0)" stroke-miterlimit="10" pointer-events="stroke"/><path d="M 509 197 L 618 196.11" fill="none" stroke="rgb(0, 0, 0)" stroke-miterlimit="10" pointer-events="stroke"/><path d="M 501.47 88.01 L 521.53 122.99" fill="none" stroke="rgb(0, 0, 0)" stroke-miterlimit="10" pointer-events="stroke"/><path d="M 633 181 L 633 91" fill="none" stroke="rgb(0, 0, 0)" stroke-miterlimit="10" pointer-events="stroke"/><path d="M 521.53 149.01 L 501.47 183.99" fill="none" stroke="rgb(0, 0, 0)" stroke-miterlimit="10" pointer-events="stroke"/></g></svg>