<svg xmlns="http://www.w3.org/2000/svg" xmlns:xlink="http://www.w3.org/1999/xlink" version="1.1" width="641px" height="241px" viewBox="-0.5 -0.5 641 241"><defs/><g><rect x="0" y="0" width="640" height="240" fill="none" stroke="none" pointer-events="all"/><rect x="10" y="20" width="60" height="20" rx="5" ry="5" fill="rgb(255, 255, 255)" stroke="#b3b3b3" pointer-events="all"/><g fill="#B3B3B3" font-family="inherit" text-anchor="end" font-size="12px"><text x="54.5" y="34.5">1 bit</text></g><rect x="60" y="10" width="100" height="40" rx="10" ry="10" fill="#000000" stroke="#000000" pointer-events="all" transform="translate(2,3)" opacity="0.25"/><rect x="60" y="10" width="100" height="40" rx="10" ry="10" fill="#f8cecc" stroke="#b85450" pointer-events="all"/><g fill="rgb(0, 0, 0)" font-family="inherit" text-anchor="middle" font-size="14px"><text x="109.5" y="35.5">Boolean</text></g><rect x="170" y="10" width="350" height="40" rx="10" ry="10" fill="none" stroke="none" pointer-events="all"/><g fill="rgb(0, 0, 0)" font-family="inherit" text-anchor="middle" font-size="13px"><text x="344.5" y="35">{ true, false }</text></g><rect x="530" y="10" width="100" height="40" rx="5" ry="5" fill="#000000" stroke="#000000" pointer-events="all" transform="translate(2,3)" opacity="0.25"/><rect x="530" y="10" width="100" height="40" rx="5" ry="5" fill="rgb(255, 255, 255)" stroke="rgb(0, 0, 0)" pointer-events="all"/><g fill="rgb(0, 0, 0)" font-family="inherit" text-anchor="middle" font-size="14px"><text x="579.5" y="35.5">2</text></g><rect x="10" y="80" width="60" height="20" rx="5" ry="5" fill="rgb(255, 255, 255)" stroke="#b3b3b3" pointer-events="all"/><g fill="#B3B3B3" font-family="inherit" text-anchor="end" font-size="12px"><text x="54.5" y="94.5">8 bits</text></g><rect x="60" y="70" width="100" height="40" rx="10" ry="10" fill="#000000" stroke="#000000" pointer-events="all" transform="translate(2,3)" opacity="0.25"/><rect x="60" y="70" width="100" height="40" rx="10" ry="10" fill="#f8cecc" stroke="#b85450" pointer-events="all"/><g fill="rgb(0, 0, 0)" font-family="inherit" text-anchor="middle" font-size="14px"><text x="109.5" y="95.5">Byte</text></g><rect x="170" y="70" width="350" height="40" rx="10" ry="10" fill="none" stroke="none" pointer-events="all"/><g fill="rgb(0, 0, 0)" font-family="inherit" text-anchor="middle" font-size="13px"><text x="344.5" y="95">{ 0, 1, 2, 3 ... 255 }</text></g><rect x="530" y="70" width="100" height="40" rx="5" ry="5" fill="#000000" stroke="#000000" pointer-events="all" transform="translate(2,3)" opacity="0.25"/><rect x="530" y="70" width="100" height="40" rx="5" ry="5" fill="rgb(255, 255, 255)" stroke="rgb(0, 0, 0)" pointer-events="all"/><g fill="rgb(0, 0, 0)" font-family="inherit" text-anchor="middle" font-size="14px"><text x="579.5" y="95.5">256</text></g><rect x="10" y="140" width="60" height="20" rx="5" ry="5" fill="rgb(255, 255, 255)" stroke="#b3b3b3" pointer-events="all"/><g fill="#B3B3B3" font-family="inherit" text-anchor="end" font-size="12px"><text x="54.5" y="154.5">32 bits</text></g><rect x="60" y="130" width="100" height="40" rx="10" ry="10" fill="#000000" stroke="#000000" pointer-events="all" transform="translate(2,3)" opacity="0.25"/><rect x="60" y="130" width="100" height="40" rx="10" ry="10" fill="#f8cecc" stroke="#b85450" pointer-events="all"/><g fill="rgb(0, 0, 0)" font-family="inherit" text-anchor="middle" font-size="14px"><text x="109.5" y="155.5">Int</text></g><rect x="170" y="130" width="350" height="40" rx="10" ry="10" fill="none" stroke="none" pointer-events="all"/><g fill="rgb(0, 0, 0)" font-family="inherit" text-anchor="middle" font-size="13px"><text x="344.5" y="155">{ 0, 1, 2, 3 ... 4294967295 }</text></g><rect x="530" y="130" width="100" height="40" rx="5" ry="5" fill="#000000" stroke="#000000" pointer-events="all" transform="translate(2,3)" opacity="0.25"/><rect x="530" y="130" width="100" height="40" rx="5" ry="5" fill="rgb(255, 255, 255)" stroke="rgb(0, 0, 0)" pointer-events="all"/><g fill="rgb(0, 0, 0)" font-family="inherit" text-anchor="middle" font-size="14px"><text x="579.5" y="155.5">4294967296</text></g><rect x="10" y="200" width="60" height="20" rx="5" ry="5" fill="rgb(255, 255, 255)" stroke="#b3b3b3" pointer-events="all"/><g fill="#B3B3B3" font-family="inherit" text-anchor="end" font-size="12px"><text x="54.5" y="214.5">∞ bits</text></g><rect x="60" y="190" width="100" height="40" rx="10" ry="10" fill="#000000" stroke="#000000" pointer-events="all" transform="translate(2,3)" opacity="0.25"/><rect x="60" y="190" width="100" height="40" rx="10" ry="10" fill="#f8cecc" stroke="#b85450" pointer-events="all"/><g fill="rgb(0, 0, 0)" font-family="inherit" text-anchor="middle" font-size="14px"><text x="109.5" y="215.5">String</text></g><rect x="170" y="190" width="350" height="40" rx="10" ry="10" fill="none" stroke="none" pointer-events="all"/><g fill="rgb(0, 0, 0)" font-family="inherit" text-anchor="middle" font-size="13px"><text x="344.5" y="215">{ &lt;empty&gt;, a, b, ..., aa, ab, ... ba, bb, ..., aaa, aab, ... }</text></g><rect x="530" y="190" width="100" height="40" rx="5" ry="5" fill="#000000" stroke="#000000" pointer-events="all" transform="translate(2,3)" opacity="0.25"/><rect x="530" y="190" width="100" height="40" rx="5" ry="5" fill="rgb(255, 255, 255)" stroke="rgb(0, 0, 0)" pointer-events="all"/><g fill="rgb(0, 0, 0)" font-family="inherit" text-anchor="middle" font-size="14px"><text x="579.5" y="215.5">∞</text></g></g></svg>