<svg xmlns="http://www.w3.org/2000/svg" xmlns:xlink="http://www.w3.org/1999/xlink" version="1.1" width="333px" height="194px" viewBox="-0.5 -0.5 333 194"><defs/><g><rect x="0" y="0" width="130" height="190" rx="10" ry="10" fill="#000000" stroke="#000000" pointer-events="all" transform="translate(2,3)" opacity="0.25"/><rect x="0" y="0" width="130" height="190" rx="10" ry="10" fill="rgb(255, 255, 255)" stroke="rgb(0, 0, 0)" pointer-events="all"/><rect x="5" y="5" width="120" height="20" fill="none" stroke="none" pointer-events="all"/><g fill="#0066CC" font-family="inherit" font-weight="bold" font-size="14px"><text x="6.5" y="20.5">Response</text></g><path d="M 15 25 L 15 35 L 25 35" fill="none" stroke="#0066cc" stroke-miterlimit="10" pointer-events="stroke"/><rect x="25" y="25" width="100" height="20" fill="none" stroke="none" pointer-events="all"/><g fill="#009900" font-family="inherit" font-weight="bold" font-size="14px"><text x="26.5" y="40.5">Success</text></g><path d="M 35 45 L 35 55 L 45 55" fill="none" stroke="#009900" stroke-miterlimit="10" pointer-events="stroke"/><rect x="45" y="45" width="80" height="20" fill="none" stroke="none" pointer-events="all"/><g fill="rgb(0, 0, 0)" font-family="inherit" font-size="14px"><text x="46.5" y="60.5">code</text></g><path d="M 35 45 L 35 75 L 45 75" fill="none" stroke="#009900" stroke-miterlimit="10" pointer-events="stroke"/><rect x="45" y="65" width="80" height="20" fill="none" stroke="none" pointer-events="all"/><g fill="rgb(0, 0, 0)" font-family="inherit" font-size="14px"><text x="46.5" y="80.5">message</text></g><path d="M 35 45 L 35 95 L 45 95" fill="none" stroke="#009900" stroke-miterlimit="10" pointer-events="stroke"/><rect x="45" y="85" width="80" height="20" fill="none" stroke="none" pointer-events="all"/><g fill="rgb(0, 0, 0)" font-family="inherit" font-size="14px"><text x="46.5" y="100.5">data</text></g><path d="M 15 25 L 15 115 L 25 115" fill="none" stroke="#0066cc" stroke-miterlimit="10" pointer-events="stroke"/><rect x="25" y="105" width="100" height="20" fill="none" stroke="none" pointer-events="all"/><g fill="#009900" font-family="inherit" font-weight="bold" font-size="14px"><text x="26.5" y="120.5">Error</text></g><path d="M 35 125 L 35 135 L 45 135" fill="none" stroke="#009900" stroke-miterlimit="10" pointer-events="stroke"/><rect x="44" y="125" width="80" height="20" fill="none" stroke="none" pointer-events="all"/><g fill="rgb(0, 0, 0)" font-family="inherit" font-size="14px"><text x="45.5" y="140.5">code</text></g><path d="M 35 125 L 35 155 L 45 155" fill="none" stroke="#009900" stroke-miterlimit="10" pointer-events="stroke"/><rect x="44" y="145" width="80" height="20" fill="none" stroke="none" pointer-events="all"/><g fill="rgb(0, 0, 0)" font-family="inherit" font-size="14px"><text x="45.5" y="160.5">message</text></g><path d="M 35 125 L 35 175 L 45 175" fill="none" stroke="#009900" stroke-miterlimit="10" pointer-events="stroke"/><rect x="45" y="165" width="80" height="20" fill="none" stroke="none" pointer-events="all"/><g fill="#000000" font-family="inherit" font-size="14px"><text x="46.5" y="180.5">exception</text></g><rect x="145" y="80" width="40" height="30" fill="none" stroke="none" pointer-events="all"/><g fill="rgb(0, 0, 0)" font-family="inherit" text-anchor="middle" font-size="32px"><text x="164.5" y="109.5">≅</text></g><rect x="200" y="30" width="130" height="130" rx="10" ry="10" fill="#000000" stroke="#000000" pointer-events="all" transform="translate(2,3)" opacity="0.25"/><rect x="200" y="30" width="130" height="130" rx="10" ry="10" fill="rgb(255, 255, 255)" stroke="rgb(0, 0, 0)" pointer-events="all"/><rect x="205" y="35" width="120" height="20" fill="none" stroke="none" pointer-events="all"/><g fill="#009900" font-family="inherit" font-weight="bold" font-size="14px"><text x="206.5" y="50.5">Response</text></g><path d="M 215 55 L 215 65 L 225 65" fill="none" stroke="#009900" stroke-miterlimit="10" pointer-events="stroke"/><rect x="225" y="55" width="100" height="20" fill="none" stroke="none" pointer-events="all"/><g fill="rgb(0, 0, 0)" font-family="inherit" font-size="14px"><text x="226.5" y="70.5">code</text></g><path d="M 215 55 L 215 85 L 225 85" fill="none" stroke="#009900" stroke-miterlimit="10" pointer-events="stroke"/><rect x="225" y="75" width="100" height="20" fill="none" stroke="none" pointer-events="all"/><g fill="rgb(0, 0, 0)" font-family="inherit" font-size="14px"><text x="226.5" y="90.5">message</text></g><path d="M 215 55 L 215 105 L 225 105" fill="none" stroke="#009900" stroke-miterlimit="10" pointer-events="stroke"/><rect x="225" y="95" width="100" height="20" fill="none" stroke="none" pointer-events="all"/><g fill="#0066CC" font-family="inherit" font-weight="bold" font-size="14px"><text x="226.5" y="110.5">Either</text></g><path d="M 235 115 L 235 125 L 245 125" fill="none" stroke="#0066cc" stroke-miterlimit="10" pointer-events="stroke"/><rect x="244" y="115" width="80" height="20" fill="none" stroke="none" pointer-events="all"/><g fill="rgb(0, 0, 0)" font-family="inherit" font-size="14px"><text x="245.5" y="130.5">data</text></g><path d="M 235 115 L 235 145 L 245 145" fill="none" stroke="#0066cc" stroke-miterlimit="10" pointer-events="stroke"/><rect x="244" y="135" width="80" height="20" fill="none" stroke="none" pointer-events="all"/><g fill="rgb(0, 0, 0)" font-family="inherit" font-size="14px"><text x="245.5" y="150.5">exception</text></g></g></svg>