<svg xmlns="http://www.w3.org/2000/svg" xmlns:xlink="http://www.w3.org/1999/xlink" version="1.1" width="333px" height="85px" viewBox="-0.5 -0.5 333 85"><defs/><g><rect x="0" y="1" width="130" height="80" rx="10" ry="10" fill="#000000" stroke="#000000" pointer-events="all" transform="translate(2,3)" opacity="0.25"/><rect x="0" y="1" width="130" height="80" rx="10" ry="10" fill="rgb(255, 255, 255)" stroke="rgb(0, 0, 0)" pointer-events="all"/><rect x="5" y="6" width="120" height="20" fill="none" stroke="none" pointer-events="all"/><g fill="#0066CC" font-family="inherit" font-weight="bold" text-anchor="middle" font-size="14px"><text x="64.5" y="21.5">State</text></g><rect x="25" y="36" width="80" height="20" fill="none" stroke="none" pointer-events="all"/><g fill="rgb(0, 0, 0)" font-family="monospace" text-anchor="middle" font-size="14px"><text x="64.5" y="51.5">dead</text></g><rect x="25" y="56" width="80" height="20" fill="none" stroke="none" pointer-events="all"/><g fill="rgb(0, 0, 0)" font-family="monospace" text-anchor="middle" font-size="14px"><text x="64.5" y="71.5">alive</text></g><rect x="145" y="1" width="40" height="30" fill="none" stroke="none" pointer-events="all"/><g fill="rgb(0, 0, 0)" font-family="inherit" text-anchor="middle" font-size="32px"><text x="164.5" y="30.5">≅</text></g><rect x="200" y="1" width="130" height="80" rx="10" ry="10" fill="#000000" stroke="#000000" pointer-events="all" transform="translate(2,3)" opacity="0.25"/><rect x="200" y="1" width="130" height="80" rx="10" ry="10" fill="rgb(255, 255, 255)" stroke="rgb(0, 0, 0)" pointer-events="all"/><rect x="205" y="6" width="120" height="20" fill="none" stroke="none" pointer-events="all"/><g fill="#B85450" font-family="inherit" font-weight="bold" text-anchor="middle" font-size="14px"><text x="264.5" y="21.5">Boolean</text></g><rect x="225" y="36" width="80" height="20" fill="none" stroke="none" pointer-events="all"/><g fill="rgb(0, 0, 0)" font-family="monospace" text-anchor="middle" font-size="14px"><text x="264.5" y="51.5">false</text></g><rect x="225" y="56" width="80" height="20" fill="none" stroke="none" pointer-events="all"/><g fill="rgb(0, 0, 0)" font-family="monospace" text-anchor="middle" font-size="14px"><text x="264.5" y="71.5">true</text></g><path d="M 105 46 L 225 46" fill="none" stroke="rgb(0, 0, 0)" stroke-miterlimit="10" pointer-events="none"/><path d="M 105 66 L 225 66" fill="none" stroke="rgb(0, 0, 0)" stroke-miterlimit="10" pointer-events="none"/></g></svg>