<svg xmlns="http://www.w3.org/2000/svg" xmlns:xlink="http://www.w3.org/1999/xlink" version="1.1" width="173px" height="234px" viewBox="-0.5 -0.5 173 234"><defs/><g><rect x="0" y="0" width="170" height="230" rx="10" ry="10" fill="#000000" stroke="#000000" pointer-events="all" transform="translate(2,3)" opacity="0.25"/><rect x="0" y="0" width="170" height="230" rx="10" ry="10" fill="rgb(255, 255, 255)" stroke="rgb(0, 0, 0)" pointer-events="all"/><rect x="5" y="5" width="160" height="20" fill="none" stroke="none" pointer-events="all"/><g fill="#0066CC" font-family="inherit" font-weight="bold" font-size="14px"><text x="6.5" y="20.5">TextFieldState</text></g><path d="M 15 25 L 15 35 L 25 35" fill="none" stroke="#0066cc" stroke-miterlimit="10" pointer-events="stroke"/><rect x="25" y="25" width="140" height="20" fill="none" stroke="none" pointer-events="all"/><g fill="#009900" font-family="inherit" font-weight="bold" font-size="14px"><text x="26.5" y="40.5">Editable</text></g><path d="M 35 45 L 35 55 L 45 55" fill="none" stroke="#009900" stroke-miterlimit="10" pointer-events="stroke"/><rect x="45" y="45" width="120" height="20" fill="none" stroke="none" pointer-events="all"/><g fill="rgb(0, 0, 0)" font-family="inherit" font-size="14px"><text x="46.5" y="60.5">text</text></g><path d="M 35 45 L 35 75 L 45 75" fill="none" stroke="#009900" stroke-miterlimit="10" pointer-events="stroke"/><rect x="45" y="65" width="120" height="20" fill="none" stroke="none" pointer-events="all"/><g fill="rgb(0, 0, 0)" font-family="inherit" font-size="14px"><text x="46.5" y="80.5">cursorColor</text></g><path d="M 15 25 L 15 95 L 25 95" fill="none" stroke="#0066cc" stroke-miterlimit="10" pointer-events="stroke"/><rect x="25" y="85" width="140" height="20" fill="none" stroke="none" pointer-events="all"/><g fill="#009900" font-family="inherit" font-weight="bold" font-size="14px"><text x="26.5" y="100.5">Static</text></g><path d="M 35 105 L 35 115 L 45 115" fill="none" stroke="#009900" stroke-miterlimit="10" pointer-events="stroke"/><rect x="45" y="105" width="120" height="20" fill="none" stroke="none" pointer-events="all"/><g fill="rgb(0, 0, 0)" font-family="inherit" font-size="14px"><text x="46.5" y="120.5">text</text></g><path d="M 35 105 L 35 135 L 45 135" fill="none" stroke="#009900" stroke-miterlimit="10" pointer-events="stroke"/><rect x="45" y="125" width="120" height="20" fill="none" stroke="none" pointer-events="all"/><g fill="#0066CC" font-family="inherit" font-weight="bold" font-size="14px"><text x="46.5" y="140.5">Mode</text></g><path d="M 55 145 L 55 155 L 65 155" fill="none" stroke="#0066cc" stroke-miterlimit="10" pointer-events="stroke"/><rect x="65" y="145" width="100" height="20" fill="none" stroke="none" pointer-events="all"/><g fill="#000000" font-family="inherit" font-size="14px"><text x="66.5" y="160.5">Normal</text></g><path d="M 55 145 L 55 175 L 65 175" fill="none" stroke="#0066cc" stroke-miterlimit="10" pointer-events="stroke"/><rect x="65" y="165" width="100" height="20" fill="none" stroke="none" pointer-events="all"/><g fill="#000000" font-family="inherit" font-size="14px"><text x="66.5" y="180.5">Strikethrough</text></g><path d="M 55 145 L 55 195 L 65 195" fill="none" stroke="#0066cc" stroke-miterlimit="10" pointer-events="stroke"/><rect x="65" y="185" width="100" height="20" fill="none" stroke="none" pointer-events="all"/><g fill="#009900" font-family="inherit" font-weight="bold" font-size="14px"><text x="66.5" y="200.5">Masked</text></g><path d="M 75 205 L 75 215 L 85 215" fill="none" stroke="#009900" stroke-miterlimit="10" pointer-events="stroke"/><rect x="85" y="205" width="80" height="20" fill="none" stroke="none" pointer-events="all"/><g fill="rgb(0, 0, 0)" font-family="inherit" font-size="14px"><text x="86.5" y="220.5">mask</text></g></g></svg>