<svg xmlns="http://www.w3.org/2000/svg" xmlns:xlink="http://www.w3.org/1999/xlink" version="1.1" width="173px" height="154px" viewBox="-0.5 -0.5 173 154"><defs/><g><rect x="0" y="0" width="170" height="150" rx="10" ry="10" fill="#000000" stroke="#000000" pointer-events="all" transform="translate(2,3)" opacity="0.25"/><rect x="0" y="0" width="170" height="150" rx="10" ry="10" fill="rgb(255, 255, 255)" stroke="rgb(0, 0, 0)" pointer-events="all"/><rect x="5" y="5" width="160" height="20" fill="none" stroke="none" pointer-events="all"/><g fill="#009900" font-family="inherit" font-weight="bold" font-size="14px"><text x="6.5" y="20.5">TextFieldState</text></g><path d="M 15 25 L 15 35 L 25 35" fill="none" stroke="#009900" stroke-miterlimit="10" pointer-events="stroke"/><rect x="25" y="25" width="140" height="20" fill="none" stroke="none" pointer-events="all"/><g fill="rgb(0, 0, 0)" font-family="inherit" font-size="14px"><text x="26.5" y="40.5">text</text></g><path d="M 15 25 L 15 55 L 25 55" fill="none" stroke="#009900" stroke-miterlimit="10" pointer-events="stroke"/><rect x="25" y="45" width="140" height="20" fill="none" stroke="none" pointer-events="all"/><g fill="rgb(0, 0, 0)" font-family="inherit" font-size="14px"><text x="26.5" y="60.5">isEditable</text></g><path d="M 15 25 L 15 75 L 25 75" fill="none" stroke="#009900" stroke-miterlimit="10" pointer-events="stroke"/><rect x="25" y="65" width="140" height="20" fill="none" stroke="none" pointer-events="all"/><g fill="rgb(0, 0, 0)" font-family="inherit" font-size="14px"><text x="26.5" y="80.5">cursorColor</text></g><path d="M 15 25 L 15 95 L 25 95" fill="none" stroke="#009900" stroke-miterlimit="10" pointer-events="stroke"/><rect x="25" y="85" width="140" height="20" fill="none" stroke="none" pointer-events="all"/><g fill="rgb(0, 0, 0)" font-family="inherit" font-size="14px"><text x="26.5" y="100.5">isStrikethrough</text></g><path d="M 15 25 L 15 115 L 25 115" fill="none" stroke="#009900" stroke-miterlimit="10" pointer-events="stroke"/><rect x="25" y="105" width="140" height="20" fill="none" stroke="none" pointer-events="all"/><g fill="rgb(0, 0, 0)" font-family="inherit" font-size="14px"><text x="26.5" y="120.5">isMasked</text></g><path d="M 15 45 L 15 135 L 25 135" fill="none" stroke="#009900" stroke-miterlimit="10" pointer-events="stroke"/><rect x="25" y="125" width="140" height="20" fill="none" stroke="none" pointer-events="all"/><g fill="rgb(0, 0, 0)" font-family="inherit" font-size="14px"><text x="26.5" y="140.5">mask</text></g></g></svg>